<?xml version="1.0" encoding="iso-8859-1"?>
<!-- Generator: Adobe Illustrator 17.1.0, SVG Export Plug-In . SVG Version: 6.00 Build 0)  -->
<!DOCTYPE svg PUBLIC "-//W3C//DTD SVG 1.1//EN" "http://www.w3.org/Graphics/SVG/1.1/DTD/svg11.dtd">
<svg version="1.1" id="Capa_1" xmlns="http://www.w3.org/2000/svg" xmlns:xlink="http://www.w3.org/1999/xlink" x="0px" y="0px"
	 viewBox="0 0 512 512" style="enable-background:new 0 0 512 512;" xml:space="preserve">
<g>
	<path d="M272,344c4.418,0,8-3.582,8-8s-3.582-8-8-8h-32c-4.418,0-8,3.582-8,8s3.582,8,8,8h8v9.376
		c-9.311,3.303-16,12.195-16,22.624c0,13.233,10.766,24,24,24s24-10.767,24-24c0-10.429-6.689-19.321-16-22.624V344H272z M256,384
		c-4.411,0-8-3.589-8-8s3.589-8,8-8s8,3.589,8,8S260.411,384,256,384z"/>
	<path d="M464,496h-8v-72c0-4.418-3.582-8-8-8c-4.411,0-8-3.589-8-8V245.835c4.774-2.771,8-7.928,8-13.835v-16
		c0-5.907-3.226-11.063-8-13.835V80c4.418,0,8-3.582,8-8s-3.582-8-8-8V48c0-1.435-0.383-2.778-1.044-3.942L462.4,12.8
		c1.818-2.424,2.111-5.667,0.755-8.378C461.8,1.712,459.03,0,456,0H56c-3.03,0-5.8,1.712-7.155,4.422
		c-1.355,2.711-1.063,5.954,0.755,8.378L72,42.667V64c-4.418,0-8,3.582-8,8s3.582,8,8,8v122.165c-4.774,2.771-8,7.928-8,13.835v16
		c0,5.907,3.226,11.063,8,13.835V408c0,4.411-3.589,8-8,8c-4.418,0-8,3.582-8,8v72h-8c-4.418,0-8,3.582-8,8s3.582,8,8,8h416
		c4.418,0,8-3.582,8-8S468.418,496,464,496z M80,216h40v16H80V216z M264,80v16.242c-2.648-0.154-5.314-0.242-8-0.242
		s-5.352,0.087-8,0.242V80H264z M376,80v88.058c-19.304-36.083-54.403-62.5-96-69.937V80H376z M432,216v16h-40v-16H432z M424,400
		h-32V248h32V400z M320,248H192c-13.234,0-24,10.767-24,24v192h-32V232h24.218c0.039,0,0.08,0.005,0.119,0.005
		c0.034,0,0.068-0.004,0.102-0.005H376v232h-32V272C344,258.767,333.234,248,320,248z M256,112c60.744,0,111.084,45.37,118.931,104
		h-16.165c-3.296-21.313-13.13-40.948-28.045-56.337c-0.302-0.467-0.654-0.911-1.063-1.32c-0.41-0.41-0.855-0.763-1.323-1.065
		c-3.628-3.508-7.525-6.781-11.686-9.772c-3.588-2.578-8.587-1.761-11.166,1.826c-2.579,3.588-1.762,8.587,1.826,11.166
		c1.721,1.237,3.385,2.536,5,3.881l-34.249,34.249c-4.221-2.788-8.982-4.785-14.059-5.817v-48.445
		c4.744,0.428,9.438,1.231,14.024,2.412c4.276,1.104,8.64-1.473,9.743-5.751c1.102-4.279-1.473-8.641-5.751-9.743
		C273.561,129.104,264.808,128,256,128c-26.27,0-51.349,9.82-70.619,27.651c-17.334,16.041-28.559,37.255-32.129,60.349h-16.183
		C144.916,157.37,195.256,112,256,112z M248,192.809c-5.077,1.033-9.839,3.029-14.06,5.817l-34.247-34.247
		c13.745-11.461,30.538-18.405,48.306-20.013V192.809z M188.383,175.696l34.237,34.237c-1.26,1.906-2.36,3.935-3.288,6.066h-49.87
		C172.189,201.146,178.701,187.301,188.383,175.696z M256,208c7.012,0,13.442,3.041,17.885,8h-35.771
		C242.557,211.041,248.987,208,256,208z M292.668,216c-0.928-2.131-2.028-4.16-3.288-6.065l34.248-34.249
		c9.632,11.549,16.174,25.406,18.914,40.314H292.668z M232,98.121c-41.597,7.437-76.696,33.854-96,69.937V80h96V98.121z M120,248
		v152H88V248H120z M136,480h32v16h-32V480z M184,272c0-4.411,3.589-8,8-8h128c4.411,0,8,3.589,8,8v224H184V272z M344,480h32v16h-32
		V480z M392,416h33.371c2.414,6.81,7.819,12.215,14.629,14.629V496h-48V416z M424,200h-32V80h32V200z M392,64V48h32v16H392z M440,16
		l-12,16h-68.002c-4.418,0-8,3.582-8,8s3.582,8,8,8H376v16H136V48h192c4.418,0,8-3.582,8-8s-3.582-8-8-8H84L72,16H440z M88,48h32v16
		H88V48z M120,80v120H88V80H120z M72,430.629c6.81-2.414,12.215-7.819,14.629-14.629H120v80H72V430.629z"/>
</g>
<g>
</g>
<g>
</g>
<g>
</g>
<g>
</g>
<g>
</g>
<g>
</g>
<g>
</g>
<g>
</g>
<g>
</g>
<g>
</g>
<g>
</g>
<g>
</g>
<g>
</g>
<g>
</g>
<g>
</g>
</svg>
